<?xml version="1.0" standalone="no"?><!DOCTYPE svg PUBLIC "-//W3C//DTD SVG 1.1//EN" "http://www.w3.org/Graphics/SVG/1.1/DTD/svg11.dtd"><svg class="icon" width="200px" height="194.31px" viewBox="0 0 1054 1024" version="1.1" xmlns="http://www.w3.org/2000/svg"><path d="M401.373223 363.121992h141.822068c94.992423 95.838672 164.802174 128.45597 320.454037 147.506234L910.007547 739.984906c16.631306 230.098596-160.362264-56.030189-508.634324 2.438279V363.121992z" fill="#84C1DD" /><path d="M459.625298 220.152272c-49.001298-44.379774-88.481328-104.838279-136.288604-199.877072L357.851291 2.909706c48.24006 95.89277 85.730053 151.532679 130.600573 191.19046 30.314264 26.790158 64.767034 46.949434 109.861676 67.000513l-15.696182 35.310612c-21.415125-9.521268-40.975457-19.258928-59.152422-29.88148 33.366943 68.009057 67.004377 118.784 109.282053 153.391336 53.738747 43.993358 123.989011 63.762355 232.888513 54.024695C970.779049 464.540498 1016.271698 404.309977 1016.271698 350.884226c0-53.429615-45.492649-113.660136-150.632332-123.065479l3.439094-38.486943C988.25274 199.989132 1054.913208 272.036226 1054.913208 350.884226c0 75.405042-60.968574 144.584936-170.524982 159.805827-5.943064 44.259985-6.858868 76.448362-0.479154 104.35526 6.885917 30.121057 22.752121 57.162385 54.627502 89.574883l8.682747 8.829585-47.988891 126.369328 0.266627 0.208665-0.672363 0.865569-14.463517 38.077344-1.835471 2.322355-0.003864 0.003864v0.003864l-0.003865 0.003864-0.007728 0.007728-0.042506 0.054098-0.142973 0.181615-0.154566 0.2048a212.903125 212.903125 0 0 0-6.205827 8.686612 268.863758 268.863758 0 0 0-15.151335 25.248362c-11.244679 21.322385-21.407396 47.892287-21.407397 73.156106h-38.641509c0-34.495275 13.474294-67.684468 25.866626-91.18237a308.158309 308.158309 0 0 1 17.350038-28.907713 251.645102 251.645102 0 0 1 5.803955-8.219049l0.502339-0.680091 2.519427-6.634747c-45.562204-33.111909-87.54234-56.00314-131.249751-70.99991-0.738053 1.4336-1.522475 2.956075-2.341676 4.563563a1067.688091 1067.688091 0 0 0-21.654702 44.936211c-7.879004 17.450506-15.615034 36.102762-21.345569 53.186174-5.896694 17.581887-9.018928 31.662853-9.018929 40.666324h-38.641509c0-15.607306 4.892015-34.665298 11.024423-52.954324 6.30243-18.783638 14.606491-38.730385 22.763713-56.799155a1085.872785 1085.872785 0 0 1 21.071215-43.877434c-36.949011-6.827955-85.092468-8.311789-133.579834-7.620106-6.669525 0.096604-13.315864 0.231849-19.900377 0.394144l-1.680906 2.990853a1680.88634 1680.88634 0 0 0-12.473479 22.736664c-10.344332 19.200966-24.12003 45.600845-37.872544 74.45446-13.775698 28.903849-27.39683 59.983215-37.532498 88.601117-10.321147 29.147291-16.302853 53.773525-16.302853 70.501434h-38.641509c0-23.698838 7.948558-53.557132 18.520875-83.403834 10.757796-30.372226 24.997192-62.788589 39.074295-92.326158 14.104151-29.587804 28.188981-56.578898 38.738113-76.154687 1.097419-2.040272 2.16006-4.00326 3.180196-5.881238-6.433811 0.262762-12.724649 0.529389-18.837736 0.788287l-4.231245 0.181615c-23.702702 1.016272-44.862792 1.920483-60.501011 1.920483v-38.64151c14.772649 0 35.159909-0.869434 59.384271-1.90889l3.697993-0.15843c25.623185-1.093555 54.901857-2.306898 84.829705-2.731955 59.109917-0.842385 123.498264 1.279034 168.283774 14.683774 51.458898 15.398642 99.200483 39.993962 149.430581 75.482324l35.376302-93.156951c-29.958762-32.377721-47.938657-63.178868-56.138385-99.038188-7.411442-32.427955-6.468589-67.614913-1.267441-109.490717-102.798008 5.502551-177.294974-15.715502-236.698566-64.341978-61.977117-50.736302-105.023758-129.460649-148.646159-229.669675zM238.356287 129.735004L182.959819 50.813585l31.628075-22.199547L287.24166 132.115321l-9.467169 11.360604-14.846068-12.365283c14.846068 12.365283 14.83834 12.373011 14.838339 12.373011l-0.01932 0.030913-0.054099 0.061826-0.181615 0.216393-0.47529 0.560302-0.177751 0.208664c-0.560302 0.66077-1.375638 1.607487-2.418959 2.805374-2.086642 2.391909-5.108408 5.788498-8.910732 9.903818a541.730777 541.730777 0 0 1-31.133464 31.060046c-24.807849 22.759849-59.786143 50.206913-94.633057 59.832513-24.328694 6.723623-54.925042 6.491774-77.874233 5.015668a478.339381 478.339381 0 0 1-17.701676-1.476106c7.00957 69.852257 28.757011 101.229162 58.584392 118.637162 17.6128 10.278642 39.68483 16.696996 67.243955 21.48468 20.916649 3.632302 43.792423 6.155592 69.319004 8.972558h0.011592c8.307925 0.915804 16.901796 1.862521 25.800936 2.890385l17.102732 1.974581v365.193178l-4.466958 5.367305-0.038642 0.04637-0.154566 0.193208-0.676226 0.8192c-0.602808 0.738053-1.499291 1.847064-2.654672 3.292256a665.839577 665.839577 0 0 0-38.950641 54.349283c-10.668921 16.654491-21.075079 34.839185-28.757012 52.370838-7.82877 17.867834-12.094792 33.42877-12.094792 45.30717h-38.64151c0-19.761268 6.708166-41.110702 15.34068-60.814008 8.783215-20.039487 20.325434-40.082838 31.608754-57.703366a704.411532 704.411532 0 0 1 40.844076-57.054189v-316.883562l-7.573736-0.834656c-25.85117-2.847879-50.419442-5.556649-72.630581-9.413072-29.344362-5.096815-56.667774-12.504392-80.103849-26.183487C34.124317 375.019713 8.450898 322.815034 3.887336 230.496604l-1.190159-23.977057 23.675653 3.964619 0.119789 0.019321 0.506204 0.081147a373.605434 373.605434 0 0 0 10.108619 1.422008c6.866596 0.869434 16.445826 1.916619 27.253856 2.608301 22.253645 1.429736 47.374491 1.197887 65.107079-3.697992 25.310189-6.994113 54.492257-28.760875 78.801631-51.060891a503.085404 503.085404 0 0 0 30.082415-30.121056z" fill="#000000" /><path d="M256.177751 334.998702c9.324196 0 16.882475-14.162113 16.882475-31.635804 0-17.473691-7.558279-31.639668-16.886339-31.639668-9.320332 0-16.882475 14.165977-16.882476 31.639668s7.562143 31.635804 16.88634 31.635804z" fill="#000000" /></svg>